<svg width="321" height="186" viewBox="0 0 321 186" fill="none" xmlns="http://www.w3.org/2000/svg">
<rect width="321" height="186" fill="white"/>
<path fill-rule="evenodd" clip-rule="evenodd" d="M40.8278 26V143.949H295.116L40.8278 26Z" stroke="#0F68CE" stroke-width="0.997377"/>
<path d="M40.8291 119.662H65.472V144.222" stroke="#0F68CE"/>
<path d="M32.8906 89.019C32.7865 88.8107 32.7018 88.4396 32.6367 87.9058C31.7969 88.7782 30.7943 89.2144 29.6289 89.2144C28.5872 89.2144 27.7311 88.9214 27.0605 88.3354C26.3965 87.743 26.0645 86.9943 26.0645 86.0894C26.0645 84.9891 26.4811 84.1362 27.3145 83.5308C28.1543 82.9188 29.3327 82.6128 30.8496 82.6128H32.6074V81.7827C32.6074 81.1512 32.4186 80.6499 32.041 80.2788C31.6634 79.9012 31.1068 79.7124 30.3711 79.7124C29.7266 79.7124 29.1862 79.8752 28.75 80.2007C28.3138 80.5262 28.0957 80.9201 28.0957 81.3823H26.2793C26.2793 80.855 26.4648 80.3472 26.8359 79.8589C27.2135 79.3641 27.7214 78.9735 28.3594 78.687C29.0039 78.4006 29.7103 78.2573 30.4785 78.2573C31.696 78.2573 32.6497 78.5633 33.3398 79.1753C34.0299 79.7808 34.388 80.6174 34.4141 81.6851V86.5483C34.4141 87.5184 34.5378 88.2899 34.7852 88.8628V89.019H32.8906ZM29.8926 87.6421C30.459 87.6421 30.9961 87.4956 31.5039 87.2026C32.0117 86.9097 32.3796 86.5288 32.6074 86.0601V83.8921H31.1914C28.9779 83.8921 27.8711 84.5399 27.8711 85.8354C27.8711 86.4019 28.0599 86.8446 28.4375 87.1636C28.8151 87.4826 29.3001 87.6421 29.8926 87.6421Z" fill="#0F68CE"/>
<path d="M155.16 157.232C155.16 158.847 154.789 160.146 154.047 161.129C153.305 162.105 152.308 162.594 151.058 162.594C149.724 162.594 148.692 162.122 147.963 161.178L147.875 162.398H146.215V147.398H148.021V152.994C148.751 152.089 149.756 151.637 151.039 151.637C152.321 151.637 153.327 152.122 154.057 153.092C154.792 154.062 155.16 155.39 155.16 157.076V157.232ZM153.353 157.027C153.353 155.797 153.116 154.846 152.641 154.176C152.165 153.505 151.482 153.17 150.59 153.17C149.398 153.17 148.542 153.723 148.021 154.83V159.4C148.575 160.507 149.437 161.061 150.609 161.061C151.475 161.061 152.149 160.725 152.631 160.055C153.113 159.384 153.353 158.375 153.353 157.027Z" fill="#0F68CE"/>
</svg>
