<svg width="166" height="120" viewBox="0 0 166 120" fill="none" xmlns="http://www.w3.org/2000/svg">
<path d="M166 0H0V120H166V0Z" fill="white"/>
<path d="M52.8181 10L150.909 100H7.54541L52.8181 10Z" stroke="#0F68CE" stroke-width="2"/>
<path d="M115.367 53.9004C115.367 54.8691 115.145 55.6484 114.699 56.2383C114.254 56.8242 113.656 57.1172 112.906 57.1172C112.105 57.1172 111.486 56.834 111.049 56.2676L110.996 57H110V48H111.084V51.3574C111.521 50.8145 112.125 50.543 112.895 50.543C113.664 50.543 114.268 50.834 114.705 51.416C115.146 51.998 115.367 52.7949 115.367 53.8066V53.9004ZM114.283 53.7773C114.283 53.0391 114.141 52.4688 113.855 52.0664C113.57 51.6641 113.16 51.4629 112.625 51.4629C111.91 51.4629 111.396 51.7949 111.084 52.459V55.2012C111.416 55.8652 111.934 56.1973 112.637 56.1973C113.156 56.1973 113.561 55.9961 113.85 55.5938C114.139 55.1914 114.283 54.5859 114.283 53.7773Z" fill="#0F68CE"/>
<path d="M21.0957 56.457C21.0332 56.332 20.9824 56.1093 20.9434 55.789C20.4395 56.3125 19.8379 56.5742 19.1387 56.5742C18.5137 56.5742 18 56.3984 17.5977 56.0468C17.1992 55.6914 17 55.2422 17 54.6992C17 54.039 17.25 53.5273 17.75 53.164C18.2539 52.7968 18.9609 52.6132 19.8711 52.6132H20.9258V52.1152C20.9258 51.7363 20.8125 51.4355 20.5859 51.2129C20.3594 50.9863 20.0254 50.873 19.584 50.873C19.1973 50.873 18.8731 50.9707 18.6113 51.166C18.3496 51.3613 18.2188 51.5976 18.2188 51.875H17.1289C17.1289 51.5586 17.2402 51.2539 17.4629 50.9609C17.6895 50.664 17.9941 50.4297 18.377 50.2578C18.7637 50.0859 19.1875 50 19.6484 50C20.3789 50 20.9512 50.1836 21.3652 50.5508C21.7793 50.914 21.9941 51.416 22.0098 52.0566V54.9746C22.0098 55.5566 22.084 56.0195 22.2324 56.3632V56.457H21.0957ZM19.2969 55.6308C19.6367 55.6308 19.959 55.5429 20.2637 55.3672C20.5684 55.1914 20.7891 54.9629 20.9258 54.6816V53.3808H20.0762C18.7481 53.3808 18.084 53.7695 18.084 54.5468C18.084 54.8867 18.1973 55.1523 18.4238 55.3437C18.6504 55.5351 18.9414 55.6308 19.2969 55.6308Z" fill="#0F68CE"/>
<path d="M71.3633 110.232C71.75 110.232 72.0879 110.115 72.377 109.881C72.666 109.646 72.8262 109.354 72.8574 109.002H73.8828C73.8633 109.365 73.7383 109.711 73.5078 110.039C73.2773 110.367 72.9688 110.629 72.582 110.824C72.1992 111.02 71.793 111.117 71.3633 111.117C70.5 111.117 69.8125 110.83 69.3008 110.256C68.793 109.678 68.5391 108.889 68.5391 107.889V107.707C68.5391 107.09 68.6523 106.541 68.8789 106.061C69.1055 105.58 69.4297 105.207 69.8516 104.941C70.2773 104.676 70.7793 104.543 71.3574 104.543C72.0684 104.543 72.6582 104.756 73.127 105.182C73.5996 105.607 73.8516 106.16 73.8828 106.84H72.8574C72.8262 106.43 72.6699 106.094 72.3887 105.832C72.1113 105.566 71.7676 105.434 71.3574 105.434C70.8066 105.434 70.3789 105.633 70.0742 106.031C69.7734 106.426 69.623 106.998 69.623 107.748V107.953C69.623 108.684 69.7734 109.246 70.0742 109.641C70.375 110.035 70.8047 110.232 71.3633 110.232Z" fill="#0F68CE"/>
</svg>
