<svg width="166" height="120" viewBox="0 0 166 120" fill="none" xmlns="http://www.w3.org/2000/svg">
<rect width="166" height="120" fill="white"/>
<path d="M52.8181 10L150.909 100H7.54541L52.8181 10Z" stroke="#0F68CE" stroke-width="2"/>
<path d="M135.818 99.9998C135.818 95.9318 136.754 91.9605 138.501 88.6158M22.6363 99.9998C22.6363 96.7072 22.023 93.4656 20.8507 90.5626C19.6784 87.6597 17.9835 85.1852 15.9163 83.3588L7.54541 99.9998H22.6363ZM44.4472 26.6408C47.7392 29.5494 51.7615 30.6283 55.6479 29.645C59.5343 28.6618 62.9738 25.6951 65.2259 21.3838L52.8181 10L44.4472 26.6408Z" stroke="#0F68CE"/>
<path d="M31.0875 86.9004C31.0875 87.8691 30.8649 88.6484 30.4196 89.2383C29.9742 89.8242 29.3766 90.1172 28.6266 90.1172C27.8258 90.1172 27.2067 89.834 26.7692 89.2676L26.7164 90H25.7203V81H26.8043V84.3574C27.2418 83.8145 27.8453 83.543 28.6149 83.543C29.3844 83.543 29.9879 83.834 30.4254 84.416C30.8668 84.998 31.0875 85.7949 31.0875 86.8066V86.9004ZM30.0035 86.7773C30.0035 86.0391 29.861 85.4688 29.5758 85.0664C29.2906 84.6641 28.8805 84.4629 28.3453 84.4629C27.6305 84.4629 27.1168 84.7949 26.8043 85.459V88.2012C27.1364 88.8652 27.6539 89.1973 28.3571 89.1973C28.8766 89.1973 29.2809 88.9961 29.5699 88.5938C29.859 88.1914 30.0035 87.5859 30.0035 86.7773Z" fill="#0F68CE"/>
<path d="M57.5526 39C57.4901 38.875 57.4393 38.6523 57.4003 38.332C56.8964 38.8555 56.2948 39.1172 55.5956 39.1172C54.9706 39.1172 54.4569 38.9414 54.0546 38.5898C53.6561 38.2344 53.4569 37.7852 53.4569 37.2422C53.4569 36.582 53.7069 36.0703 54.2069 35.707C54.7108 35.3398 55.4178 35.1562 56.328 35.1562H57.3827V34.6582C57.3827 34.2793 57.2694 33.9785 57.0428 33.7559C56.8163 33.5293 56.4823 33.416 56.0409 33.416C55.6542 33.416 55.33 33.5137 55.0682 33.709C54.8065 33.9043 54.6757 34.1406 54.6757 34.418H53.5858C53.5858 34.1016 53.6971 33.7969 53.9198 33.5039C54.1464 33.207 54.451 32.9727 54.8339 32.8008C55.2206 32.6289 55.6444 32.543 56.1053 32.543C56.8358 32.543 57.4081 32.7266 57.8221 33.0938C58.2362 33.457 58.451 33.959 58.4667 34.5996V37.5176C58.4667 38.0996 58.5409 38.5625 58.6893 38.9062V39H57.5526ZM55.7538 38.1738C56.0936 38.1738 56.4159 38.0859 56.7206 37.9102C57.0253 37.7344 57.246 37.5059 57.3827 37.2246V35.9238H56.5331C55.205 35.9238 54.5409 36.3125 54.5409 37.0898C54.5409 37.4297 54.6542 37.6953 54.8807 37.8867C55.1073 38.0781 55.3983 38.1738 55.7538 38.1738Z" fill="#0F68CE"/>
<path d="M131.636 91.2324C132.023 91.2324 132.361 91.1152 132.65 90.8809C132.939 90.6465 133.099 90.3535 133.13 90.002H134.156C134.136 90.3652 134.011 90.7109 133.781 91.0391C133.55 91.3672 133.241 91.6289 132.855 91.8242C132.472 92.0195 132.066 92.1172 131.636 92.1172C130.773 92.1172 130.085 91.8301 129.573 91.2559C129.066 90.6777 128.812 89.8887 128.812 88.8887V88.707C128.812 88.0898 128.925 87.541 129.152 87.0605C129.378 86.5801 129.702 86.207 130.124 85.9414C130.55 85.6758 131.052 85.543 131.63 85.543C132.341 85.543 132.931 85.7559 133.4 86.1816C133.872 86.6074 134.124 87.1602 134.156 87.8398H133.13C133.099 87.4297 132.943 87.0938 132.661 86.832C132.384 86.5664 132.04 86.4336 131.63 86.4336C131.079 86.4336 130.652 86.6328 130.347 87.0312C130.046 87.4258 129.896 87.998 129.896 88.748V88.9531C129.896 89.6836 130.046 90.2461 130.347 90.6406C130.648 91.0352 131.077 91.2324 131.636 91.2324Z" fill="#0F68CE"/>
</svg>
