<svg width="166" height="120" viewBox="0 0 166 120" fill="none" xmlns="http://www.w3.org/2000/svg">
<path d="M166 0H0V120H166V0Z" fill="white"/>
<path d="M52.8181 10L150.909 100H7.54541L52.8181 10Z" stroke="#0F68CE" stroke-width="2"/>
<path d="M99.3422 45.0231C98.8365 45.5449 98.3098 45.8483 97.7621 45.9336C97.2165 46.0167 96.7417 45.8625 96.3377 45.4711C95.9065 45.0531 95.7208 44.5774 95.7808 44.044L95.3701 44.4109L94.8337 43.891L99.5313 39.0439L100.115 39.6097L98.3627 41.4179C98.8817 41.3538 99.3484 41.5226 99.7629 41.9243C100.177 42.3259 100.35 42.7977 100.282 43.3395C100.216 43.8834 99.9192 44.4277 99.3911 44.9726L99.3422 45.0231ZM98.8226 44.391C99.2079 43.9934 99.4288 43.6119 99.4853 43.2463C99.5417 42.8808 99.4258 42.5584 99.1376 42.279C98.7526 41.9059 98.3026 41.8166 97.7877 42.0112L96.3564 43.488C96.1886 44.019 96.294 44.4679 96.6727 44.8349C96.9525 45.1061 97.2753 45.2088 97.641 45.143C98.0067 45.0772 98.4005 44.8265 98.8226 44.391ZM100.571 49.4511C100.602 49.3512 100.691 49.2047 100.837 49.0118C100.293 49.0307 99.8321 48.8577 99.4555 48.4927C99.1189 48.1665 98.934 47.8037 98.9009 47.4044C98.8718 47.005 98.999 46.659 99.2824 46.3666C99.627 46.0111 100.029 45.866 100.488 45.9313C100.951 45.9966 101.427 46.2667 101.917 46.7418L102.485 47.2923L102.745 47.0241C102.943 46.82 103.039 46.5989 103.033 46.3607C103.03 46.1204 102.909 45.8851 102.671 45.6547C102.463 45.4528 102.237 45.3362 101.994 45.3048C101.752 45.2734 101.558 45.3323 101.413 45.4817L100.826 44.9129C100.991 44.7424 101.21 44.6365 101.483 44.5949C101.76 44.5533 102.046 44.5861 102.342 44.6933C102.64 44.8026 102.913 44.9775 103.162 45.2181C103.555 45.5994 103.767 45.997 103.799 46.4109C103.832 46.8226 103.686 47.2051 103.36 47.5583L101.837 49.1298C101.533 49.4433 101.331 49.7313 101.232 49.9939L101.183 50.0444L100.571 49.4511ZM100.033 48.0672C100.216 48.2446 100.436 48.3655 100.691 48.4299C100.947 48.4942 101.185 48.4864 101.406 48.4062L102.085 47.7057L101.627 47.2622C100.912 46.569 100.351 46.4317 99.9457 46.8504C99.7683 47.0334 99.6907 47.2356 99.7128 47.4569C99.7349 47.6783 99.8417 47.8817 100.033 48.0672ZM104.844 51.8362C104.997 51.6784 105.055 51.4983 105.019 51.2958C104.987 51.0933 104.853 50.8167 104.617 50.4661C104.384 50.1176 104.223 49.8145 104.134 49.5569C104.047 49.3014 104.021 49.0718 104.055 48.8682C104.091 48.6667 104.191 48.4818 104.354 48.3135C104.625 48.0337 104.972 47.9112 105.395 47.946C105.821 47.9828 106.217 48.1796 106.585 48.5364C106.973 48.9116 107.189 49.3153 107.235 49.7476C107.284 50.182 107.157 50.5548 106.855 50.8662L106.268 50.2973C106.423 50.1374 106.488 49.9334 106.464 49.6851C106.441 49.4389 106.327 49.2159 106.121 49.0161C105.908 48.8102 105.697 48.6954 105.487 48.6717C105.278 48.6481 105.101 48.7109 104.956 48.8603C104.819 49.0013 104.772 49.1615 104.814 49.3411C104.856 49.5207 104.991 49.7838 105.218 50.1304C105.447 50.479 105.609 50.7862 105.702 51.0521C105.795 51.3179 105.823 51.5567 105.785 51.7687C105.751 51.9805 105.645 52.178 105.468 52.361C105.172 52.666 104.812 52.7929 104.389 52.7415C103.967 52.688 103.562 52.4727 103.173 52.0955C102.899 51.8304 102.704 51.5476 102.588 51.2469C102.471 50.9462 102.437 50.6515 102.484 50.3628C102.535 50.074 102.659 49.8286 102.855 49.6267L103.438 50.1925C103.259 50.3983 103.186 50.6294 103.219 50.8858C103.256 51.1422 103.395 51.3865 103.635 51.619C103.856 51.8331 104.075 51.9601 104.293 52.0002C104.516 52.0403 104.699 51.9856 104.844 51.8362ZM106.666 55.4811C106.203 55.0325 105.974 54.5161 105.977 53.9318C105.982 53.3453 106.232 52.7976 106.725 52.2885L106.829 52.1812C107.157 51.8425 107.514 51.6028 107.899 51.462C108.289 51.3213 108.671 51.2883 109.048 51.3633C109.428 51.4381 109.754 51.607 110.025 51.8701C110.469 52.3003 110.672 52.7809 110.635 53.3118C110.598 53.8428 110.315 54.3807 109.787 54.9256L109.552 55.1686L107.239 52.9268C106.921 53.2716 106.754 53.6389 106.74 54.0286C106.729 54.4183 106.869 54.7538 107.16 55.0352C107.366 55.235 107.581 55.3621 107.806 55.4166C108.03 55.4711 108.264 55.4809 108.506 55.4461L108.593 56.0693C107.881 56.2317 107.239 56.0357 106.666 55.4811ZM109.56 52.3497C109.325 52.1214 109.043 52.016 108.716 52.0335C108.391 52.049 108.06 52.193 107.722 52.4655L109.433 54.1232L109.476 54.079C109.746 53.766 109.888 53.4592 109.902 53.1586C109.918 52.8559 109.804 52.5862 109.56 52.3497Z" fill="#0F68CE"/>
<path d="M57.4828 80.5677C57.5997 80.0092 57.9145 79.5975 58.4272 79.3324C59.3198 78.8709 60.0304 79.1417 60.5589 80.1448L62.002 82.9358L61.2799 83.3092L59.8347 80.5142C59.6747 80.2111 59.4881 80.0223 59.2748 79.9479C59.0641 79.8721 58.8143 79.9089 58.5255 80.0583C58.2912 80.1794 58.1179 80.3482 58.0056 80.5646C57.8932 80.781 57.84 81.0162 57.8461 81.2704L59.4022 84.2801L58.6801 84.6534L55.5799 78.6575L56.3021 78.2841L57.4828 80.5677ZM64.8764 81.5486C64.3039 81.8446 63.7412 81.8981 63.1883 81.709C62.6341 81.5174 62.1941 81.1067 61.8685 80.4769L61.7999 80.3442C61.5832 79.9252 61.4695 79.5107 61.4587 79.1007C61.4492 78.6868 61.5398 78.3134 61.7305 77.9806C61.9225 77.6439 62.1864 77.3887 62.5221 77.2152C63.0712 76.9313 63.5915 76.8915 64.083 77.0958C64.5745 77.3001 64.9945 77.7392 65.343 78.4133L65.4984 78.7138L62.6371 80.1933C62.8628 80.6043 63.1581 80.8787 63.5229 81.0166C63.889 81.1505 64.2516 81.1247 64.6107 80.939C64.8657 80.8071 65.0548 80.6434 65.178 80.4478C65.3011 80.2522 65.3846 80.0342 65.4286 79.7938L66.0473 79.9093C65.9746 80.6362 65.5843 81.1826 64.8764 81.5486ZM62.8289 77.8085C62.5374 77.9592 62.3479 78.1924 62.2605 78.5081C62.1717 78.8211 62.2028 79.181 62.3537 79.5878L64.4695 78.4939L64.4412 78.4392C64.2307 78.083 63.9851 77.8505 63.7046 77.7416C63.4226 77.6301 63.1307 77.6524 62.8289 77.8085ZM68.1073 79.7792L67.3851 80.1526L65.2013 75.9288L65.9235 75.5555L68.1073 79.7792ZM64.5635 74.8388C64.5029 74.7217 64.4869 74.6046 64.5155 74.4876C64.5466 74.3693 64.6325 74.2738 64.773 74.2011C64.9135 74.1284 65.0411 74.1136 65.1557 74.1566C65.2702 74.1996 65.3578 74.2797 65.4184 74.3968C65.4789 74.5139 65.4929 74.6303 65.4604 74.7461C65.4279 74.8618 65.3414 74.956 65.2009 75.0287C65.0604 75.1013 64.9335 75.1175 64.8202 75.0771C64.7096 75.0353 64.624 74.9559 64.5635 74.8388ZM67.9848 77.1215C67.6444 76.4631 67.5262 75.8613 67.6302 75.3161C67.7328 74.7683 68.0353 74.3646 68.5375 74.1049C69.0528 73.8385 69.5491 73.8128 70.0263 74.0278L69.8193 73.5412L70.479 73.2001L72.6103 77.3223C72.8929 77.8688 72.9529 78.3836 72.7905 78.8667C72.6306 79.3484 72.2774 79.7306 71.7309 80.0131C71.4264 80.1706 71.0948 80.2596 70.736 80.2801C70.3773 80.3007 70.0626 80.2375 69.792 80.0905L69.9427 79.4634C70.4502 79.6859 70.9277 79.6814 71.3753 79.4499C71.7267 79.2683 71.9488 79.0281 72.0417 78.7294C72.1372 78.4293 72.0922 78.0998 71.9065 77.7406L71.7188 77.3776C71.6021 77.8601 71.294 78.2305 70.7943 78.4888C70.2999 78.7445 69.7961 78.7526 69.2832 78.5132C68.7728 78.2725 68.3401 77.8086 67.9848 77.1215ZM68.7533 76.8281C68.9995 77.3043 69.2909 77.6286 69.6273 77.801C69.9625 77.9707 70.3057 77.9647 70.657 77.7831C71.1124 77.5476 71.3399 77.1678 71.3393 76.6437L70.3423 74.7153C69.9125 74.4263 69.4764 74.3962 69.034 74.6249C68.6827 74.8066 68.4788 75.0852 68.4223 75.4607C68.3658 75.8362 68.4761 76.292 68.7533 76.8281ZM72.5586 72.7729C72.6755 72.2144 72.9903 71.8027 73.5029 71.5376C74.3956 71.0761 75.1062 71.3468 75.6347 72.3499L77.0778 75.141L76.3556 75.5144L74.9105 72.7194C74.7505 72.4163 74.5638 72.2275 74.3505 72.1531C74.1399 72.0773 73.8901 72.1141 73.6012 72.2635C73.367 72.3846 73.1937 72.5533 73.0813 72.7698C72.969 72.9862 72.9158 73.2214 72.9219 73.4756L74.478 76.4852L73.7558 76.8586L70.6557 70.8627L71.3778 70.4893L72.5586 72.7729ZM76.4263 68.8289L76.9551 69.8516L77.7436 69.4439L78.0322 70.0021L77.2437 70.4099L78.598 73.0292C78.6855 73.1983 78.7865 73.3077 78.9012 73.3572C79.0145 73.4042 79.1558 73.3839 79.3249 73.2965C79.4082 73.2534 79.5146 73.1786 79.6442 73.072L79.947 73.6576C79.7839 73.8078 79.6126 73.9294 79.433 74.0222C79.1103 74.1891 78.8165 74.2173 78.5517 74.1069C78.2868 73.9965 78.0615 73.7617 77.8758 73.4026L76.5215 70.7832L75.7525 71.1809L75.4639 70.6226L76.2329 70.225L75.7041 69.2023L76.4263 68.8289Z" fill="#0F68CE"/>
<path d="M8 100L101 53" stroke="#0F68CE"/>
</svg>
