<svg width="166" height="120" viewBox="0 0 166 120" fill="none" xmlns="http://www.w3.org/2000/svg">
<path d="M166 0H0V120H166V0Z" fill="white"/>
<path d="M52.8181 10L150.909 100H7.54541L52.8181 10Z" stroke="#0F68CE" stroke-width="2"/>
<path d="M115.367 53.9004C115.367 54.8691 115.145 55.6484 114.699 56.2383C114.254 56.8242 113.656 57.1172 112.906 57.1172C112.105 57.1172 111.486 56.834 111.049 56.2676L110.996 57H110V48H111.084V51.3574C111.521 50.8145 112.125 50.543 112.895 50.543C113.664 50.543 114.268 50.834 114.705 51.416C115.146 51.998 115.367 52.7949 115.367 53.8066V53.9004ZM114.283 53.7773C114.283 53.0391 114.141 52.4688 113.855 52.0664C113.57 51.6641 113.16 51.4629 112.625 51.4629C111.91 51.4629 111.396 51.7949 111.084 52.459V55.2012C111.416 55.8652 111.934 56.1973 112.637 56.1973C113.156 56.1973 113.561 55.9961 113.85 55.5938C114.139 55.1914 114.283 54.5859 114.283 53.7773Z" fill="#0F68CE"/>
<path d="M21.0957 56.457C21.0332 56.332 20.9824 56.1093 20.9434 55.789C20.4395 56.3125 19.8379 56.5742 19.1387 56.5742C18.5137 56.5742 18 56.3984 17.5977 56.0468C17.1992 55.6914 17 55.2422 17 54.6992C17 54.039 17.25 53.5273 17.75 53.164C18.2539 52.7968 18.9609 52.6132 19.8711 52.6132H20.9258V52.1152C20.9258 51.7363 20.8125 51.4355 20.5859 51.2129C20.3594 50.9863 20.0254 50.873 19.584 50.873C19.1973 50.873 18.8731 50.9707 18.6113 51.166C18.3496 51.3613 18.2188 51.5976 18.2188 51.875H17.1289C17.1289 51.5586 17.2402 51.2539 17.4629 50.9609C17.6895 50.664 17.9941 50.4297 18.377 50.2578C18.7637 50.0859 19.1875 50 19.6484 50C20.3789 50 20.9512 50.1836 21.3652 50.5508C21.7793 50.914 21.9941 51.416 22.0098 52.0566V54.9746C22.0098 55.5566 22.084 56.0195 22.2324 56.3632V56.457H21.0957ZM19.2969 55.6308C19.6367 55.6308 19.959 55.5429 20.2637 55.3672C20.5684 55.1914 20.7891 54.9629 20.9258 54.6816V53.3808H20.0762C18.7481 53.3808 18.084 53.7695 18.084 54.5468C18.084 54.8867 18.1973 55.1523 18.4238 55.3437C18.6504 55.5351 18.9414 55.6308 19.2969 55.6308Z" fill="#0F68CE"/>
<path d="M50.5508 35C50.5039 34.9062 50.4658 34.7393 50.4365 34.499C50.0586 34.8916 49.6074 35.0879 49.083 35.0879C48.6143 35.0879 48.229 34.9561 47.9272 34.6924C47.6284 34.4258 47.479 34.0889 47.479 33.6816C47.479 33.1865 47.6665 32.8027 48.0415 32.5303C48.4194 32.2549 48.9497 32.1172 49.6323 32.1172H50.4233V31.7437C50.4233 31.4595 50.3384 31.2339 50.1685 31.0669C49.9985 30.897 49.748 30.812 49.417 30.812C49.127 30.812 48.8838 30.8853 48.6875 31.0317C48.4912 31.1782 48.3931 31.3555 48.3931 31.5635H47.5757C47.5757 31.3262 47.6592 31.0977 47.8262 30.8779C47.9961 30.6553 48.2246 30.4795 48.5117 30.3506C48.8018 30.2217 49.1196 30.1572 49.4653 30.1572C50.0132 30.1572 50.4424 30.2949 50.7529 30.5703C51.0635 30.8428 51.2246 31.2192 51.2363 31.6997V33.8882C51.2363 34.3247 51.292 34.6719 51.4033 34.9297V35H50.5508ZM49.2017 34.3804C49.4565 34.3804 49.6982 34.3145 49.9268 34.1826C50.1553 34.0508 50.3208 33.8794 50.4233 33.6685V32.6929H49.7861C48.79 32.6929 48.292 32.9844 48.292 33.5674C48.292 33.8223 48.377 34.0215 48.5469 34.165C48.7168 34.3086 48.9351 34.3804 49.2017 34.3804ZM53.2798 30.2451L53.3062 30.8428C53.6694 30.3857 54.144 30.1572 54.73 30.1572C55.7349 30.1572 56.2417 30.7241 56.2505 31.8579V35H55.4375V31.8535C55.4346 31.5107 55.3555 31.2573 55.2002 31.0933C55.0479 30.9292 54.8091 30.8472 54.4839 30.8472C54.2202 30.8472 53.9888 30.9175 53.7896 31.0581C53.5903 31.1987 53.4351 31.3833 53.3237 31.6118V35H52.5107V30.2451H53.2798ZM57.2832 32.583C57.2832 31.8418 57.4546 31.2529 57.7974 30.8164C58.1401 30.377 58.5942 30.1572 59.1597 30.1572C59.7397 30.1572 60.1924 30.3623 60.5176 30.7725L60.5571 30.2451H61.2998V34.8857C61.2998 35.501 61.1167 35.9858 60.7505 36.3403C60.3872 36.6948 59.8979 36.8721 59.2827 36.8721C58.9399 36.8721 58.6045 36.7988 58.2764 36.6523C57.9482 36.5059 57.6978 36.3052 57.5249 36.0503L57.9468 35.5625C58.2954 35.9932 58.7217 36.2085 59.2256 36.2085C59.6211 36.2085 59.9287 36.0972 60.1484 35.8745C60.3711 35.6519 60.4824 35.3384 60.4824 34.9341V34.5254C60.1572 34.9004 59.7134 35.0879 59.1509 35.0879C58.5942 35.0879 58.1431 34.8638 57.7974 34.4155C57.4546 33.9673 57.2832 33.3564 57.2832 32.583ZM58.1006 32.6753C58.1006 33.2114 58.2104 33.6333 58.4302 33.9409C58.6499 34.2456 58.9575 34.3979 59.353 34.3979C59.8657 34.3979 60.2422 34.165 60.4824 33.6992V31.5283C60.2334 31.0742 59.8599 30.8472 59.3618 30.8472C58.9663 30.8472 58.6572 31.001 58.4346 31.3086C58.2119 31.6162 58.1006 32.0718 58.1006 32.6753ZM63.4136 35H62.6006V28.25H63.4136V35ZM66.6919 35.0879C66.0474 35.0879 65.5229 34.877 65.1187 34.4551C64.7144 34.0303 64.5122 33.4634 64.5122 32.7544V32.605C64.5122 32.1333 64.6016 31.7129 64.7803 31.3438C64.9619 30.9717 65.2139 30.6816 65.5361 30.4736C65.8613 30.2627 66.2129 30.1572 66.5908 30.1572C67.209 30.1572 67.6895 30.3608 68.0322 30.7681C68.375 31.1753 68.5464 31.7583 68.5464 32.5171V32.8555H65.3252C65.3369 33.3242 65.4731 33.7036 65.7339 33.9937C65.9976 34.2808 66.3315 34.4243 66.7358 34.4243C67.0229 34.4243 67.2661 34.3657 67.4653 34.2485C67.6646 34.1313 67.8389 33.9761 67.9883 33.7827L68.4849 34.1694C68.0864 34.7817 67.4888 35.0879 66.6919 35.0879ZM66.5908 30.8252C66.2627 30.8252 65.9873 30.9453 65.7646 31.1855C65.542 31.4229 65.4043 31.7568 65.3516 32.1875H67.7334V32.126C67.71 31.7129 67.5986 31.3936 67.3994 31.168C67.2002 30.9395 66.9307 30.8252 66.5908 30.8252Z" fill="#0F68CE"/>
<path d="M47 21L47.1603 21.211C51.3994 26.7886 60.0498 25.8542 63 19.5V19.5" stroke="#0F68CE"/>
</svg>
